#!OML:ASF E:\emotionWalksFemale\Project 1\Capture day 1\Session 1\Female1.ASF
:FULLY-SPECIFIED
:DEGREES
473
root 24.909 14.935 32.5101 189.758 -0.8361 -175.594
lowerback 8.66442 -1.01352 -2.61841
upperback -2.07674 -1.62158 0.442234
thorax -6.96632 -0.67505 2.17304
lowerneck -7.69195 -0.626042 -0.878739
upperneck 5.33073 -0.75924 0.246428
head 3.06321 -0.385712 0.195631
rclavicle -1.59028e-015 -1.11319e-014
rhumerus -60.9065 2.64931 -77.0647
rradius 39.6438
rwrist 6.19142
rhand -18.5196 -51.8384
rfingers 7.12502
rthumb -172.231 98.3243
lclavicle -1.59028e-015 -1.11319e-014
lhumerus -14.7812 -13.9159 87.0764
lradius 35.2423
lwrist -21.8136
lhand -1.33683 -32.4421
lfingers 7.12502
lthumb 24.3093 -3.96355
rfemur -38.2362 3.18069 29.1788
rtibia 31.4071
rfoot -14.6636 -25.4219
rtoes 11.1612
lfemur 14.6636 -15.1234 -28.703
ltibia 14.5851
lfoot 12.3813 -16.373
ltoes 53.777
474
root 24.9388 14.9563 32.3189 189.577 -0.958747 -175.263
lowerback 9.18122 -0.913255 -1.96753
upperback -2.35402 -1.42643 0.46812
thorax -7.58414 -0.594752 1.82325
lowerneck -7.97825 -0.756371 -0.754542
upperneck 5.87891 -0.937565 0.176447
head 3.30725 -0.474095 0.140434
rclavicle -3.97569e-015 -7.95139e-016
rhumerus -60.3969 2.35604 -76.7789
rradius 38.0604
rwrist 7.18393
rhand -18.1294 -52.0333
rfingers 7.12502
rthumb -171.855 98.1437
lclavicle -3.97569e-015 -7.95139e-016
lhumerus -16.5023 -14.1387 87.205
lradius 35.3058
lwrist -22.0747
lhand -1.5904 -32.3229
lfingers 7.12502
lthumb 24.0662 -3.81202
rfemur -37.3555 3.1403 29.6624
rtibia 31.6021
rfoot -14.4141 -24.9724
rtoes 10.6749
lfemur 12.9868 -13.8745 -27.6293
ltibia 18.332
lfoot 15.3973 -16.3455
ltoes 53.2957
475
root 24.969 14.9798 32.1297 189.451 -0.961105 -175.034
lowerback 9.11267 -0.78856 -1.67213
upperback -2.29561 -1.21119 0.622166
thorax -7.4938 -0.500951 1.78395
lowerneck -8.4808 -0.915448 -0.616596
upperneck 6.16974 -1.12899 -0.226907
head 3.50342 -0.582778 -0.029606
rclavicle 6.85807e-015 7.95139e-016
rhumerus -59.2289 2.10648 -76.3062
rradius 36.498
rwrist 8.18414
rhand -17.3931 -52.2398
rfingers 7.12502
rthumb -171.144 97.966
lclavicle 6.85807e-015 7.95139e-016
lhumerus -17.6856 -14.1406 87.3628
lradius 35.2565
lwrist -22.3026
lhand -1.95277 -32.3708
lfingers 7.12502
lthumb 23.7187 -3.81435
rfemur -36.4955 3.2441 30.029
rtibia 31.7005
rfoot -13.945 -24.3232
rtoes 10.2773
lfemur 11.2463 -12.4979 -26.6421
ltibia 21.9622
lfoot 18.9019 -15.9829
ltoes 51.6564
476
root 24.9984 15.0012 31.9424 189.284 -0.807264 -174.919
lowerback 8.87012 -0.713454 -1.34078
upperback -2.24347 -1.06896 0.610678
thorax -7.30988 -0.449436 1.55801
lowerneck -8.39398 -0.952265 -0.57452
upperneck 6.22942 -1.17444 -0.327582
head 3.50636 -0.608244 -0.0724121
rclavicle -3.18055e-015 1.59028e-014
rhumerus -58.0687 1.79318 -76.0107
rradius 34.9141
rwrist 9.52116
rhand -16.5424 -52.1621
rfingers 7.12502
rthumb -170.323 98.0802
lclavicle -3.18055e-015 1.59028e-014
lhumerus -19.2063 -14.1969 87.2371
lradius 35.3816
lwrist -22.2042
lhand -1.66601 -32.2659
lfingers 7.12502
lthumb 23.9937 -3.74545
rfemur -35.5571 3.6397 30.2021
rtibia 31.7455
rfoot -13.8563 -23.9112
rtoes 10.8632
lfemur 9.56804 -11.1017 -25.8532
ltibia 25.5835
lfoot 22.9757 -13.5145
ltoes 52.7881
477
root 25.0282 15.0215 31.7602 189.051 -0.612359 -174.848
lowerback 8.65872 -0.564681 -1.33923
upperback -2.05801 -0.856655 0.760171
thorax -6.9961 -0.346847 1.67698
lowerneck -8.47426 -0.968891 -0.963134
upperneck 6.26841 -1.17066 -0.0714383
head 3.54061 -0.605141 0.0800601
rclavicle -2.61402e-014 -1.98785e-014
rhumerus -56.7045 1.48957 -75.4943
rradius 33.4898
rwrist 10.9898
rhand -15.8391 -52.1383
rfingers 7.12502
rthumb -169.645 98.1367
lclavicle -2.61402e-014 -1.98785e-014
lhumerus -20.4656 -14.1409 87.3268
lradius 35.375
lwrist -22.1667
lhand -0.967286 -31.7952
lfingers 7.12502
lthumb 24.6636 -3.36457
rfemur -34.503 4.05246 30.3271
rtibia 31.7517
rfoot -14.2465 -23.814
rtoes 12.7614
lfemur 7.92584 -9.68361 -25.1354
ltibia 29.1959
lfoot 25.6211 -11.9065
ltoes 51.9602
478
root 25.0589 15.0446 31.5844 188.841 -0.462265 -174.688
lowerback 9.49519 -0.401208 -1.11455
upperback -2.45698 -0.619708 0.804667
thorax -7.91552 -0.22865 1.5789
lowerneck -8.39167 -1.03318 -1.16894
upperneck 6.62737 -1.25278 0.205032
head 3.65496 -0.638593 0.202465
rclavicle 3.77691e-015 -1.98785e-014
rhumerus -56.3789 1.37639 -75.3037
rradius 32.6943
rwrist 12.0806
rhand -15.2908 -52.2802
rfingers 7.12502
rthumb -169.116 98.0219
lclavicle 3.77691e-015 -1.98785e-014
lhumerus -22.4588 -14.2275 87.4744
lradius 35.2521
lwrist -22.1043
lhand -0.414225 -31.4308
lfingers 7.12502
lthumb 25.1936 -3.07368
rfemur -33.4282 4.54944 30.5491
rtibia 31.6905
rfoot -14.1061 -24.2804
rtoes 12.4002
lfemur 6.11386 -8.13154 -24.2769
ltibia 32.9054
lfoot 26.5431 -15.0455
ltoes 40.9541
479
root 25.0944 15.0699 31.414 188.594 -0.398309 -174.56
lowerback 9.56839 -0.259379 -1.0359
upperback -2.37582 -0.406941 0.857004
thorax -7.87811 -0.124006 1.55509
lowerneck -8.21016 -1.17405 -1.08047
upperneck 6.3108 -1.45476 0.184861
head 3.50876 -0.737553 0.170306
rclavicle -5.46658e-015 -1.35174e-014
rhumerus -55.5383 1.20349 -75.217
rradius 32.4663
rwrist 12.8954
rhand -14.4912 -52.677
rfingers 7.12502
rthumb -168.345 97.6672
lclavicle -5.46658e-015 -1.35174e-014
lhumerus -23.5619 -14.2455 87.4148
lradius 34.8938
lwrist -22.1495
lhand -0.0459814 -31.2746
lfingers 7.12502
lthumb 25.5463 -2.96747
rfemur -32.2614 4.90235 30.8184
rtibia 31.5089
rfoot -13.7118 -24.691
rtoes 10.3356
lfemur 4.2682 -6.70939 -23.4886
ltibia 36.7132
lfoot 26.0585 -16.4121
ltoes 30.8455
480
root 25.1332 15.0976 31.2506 188.387 -0.412962 -174.498
lowerback 9.48142 -0.139234 -1.13618
upperback -2.21619 -0.261436 0.948909
thorax -7.66116 -0.0531023 1.68376
lowerneck -8.0123 -1.28521 -1.06827
upperneck 5.98482 -1.61037 0.201342
head 3.35772 -0.813924 0.167126
rclavicle 7.15625e-015 9.54166e-015
rhumerus -54.7124 1.20545 -75.2545
rradius 32.6513
rwrist 13.5105
rhand -13.7623 -53.4055
rfingers 7.12502
rthumb -167.642 96.9798
lclavicle 7.15625e-015 9.54166e-015
lhumerus -24.6332 -14.2493 87.3132
lradius 34.7023
lwrist -22.2847
lhand 0.57058 -31.028
lfingers 7.12502
lthumb 26.1368 -2.80692
rfemur -31.0926 4.97584 31.0984
rtibia 31.1837
rfoot -14.5284 -24.3914
rtoes 13.2952
lfemur 2.29365 -5.55403 -22.7777
ltibia 40.5573
lfoot 24.5573 -17.0702
ltoes 22.9108
481
root 25.1692 15.1243 31.0874 188.344 -0.362272 -174.429
lowerback 9.90549 -0.0418757 -1.05917
upperback -2.50848 -0.114116 0.929419
thorax -8.22616 0.0263999 1.60077
lowerneck -7.63495 -1.30623 -1.22564
upperneck 5.99162 -1.64739 0.497307
head 3.29236 -0.823712 0.291885
rclavicle -9.93923e-017 -6.36111e-015
rhumerus -54.6136 1.5237 -75.6909
rradius 33.1713
rwrist 13.4372
rhand -13.6656 -54.2405
rfingers 7.12502
rthumb -167.549 96.1504
lclavicle -9.93923e-017 -6.36111e-015
lhumerus -26.5723 -14.3704 87.227
lradius 34.7361
lwrist -22.5406
lhand 1.14507 -30.7667
lfingers 7.12502
lthumb 26.6867 -2.62819
rfemur -30.0737 4.9713 31.4061
rtibia 30.7325
rfoot -15.3905 -23.8834
rtoes 17.5175
lfemur 0.100657 -4.46039 -22.089
ltibia 44.4078
lfoot 22.1975 -17.7424
ltoes 19.2459
482
root 25.2029 15.1495 30.9195 188.254 -0.257735 -174.374
lowerback 9.7603 0.145246 -1.04451
upperback -2.48455 0.137005 0.90472
thorax -8.1251 0.146169 1.52338
lowerneck -7.01459 -1.39355 -1.2855
upperneck 5.48272 -1.78184 0.715447
head 3.00286 -0.884319 0.371209
rclavicle 2.38542e-015 -6.36111e-015
rhumerus -54.1997 1.80459 -76.2357
rradius 33.9379
rwrist 12.6009
rhand -13.7245 -54.8678
rfingers 7.12502
rthumb -167.605 95.5196
lclavicle 2.38542e-015 -6.36111e-015
lhumerus -27.9847 -14.4642 87.1169
lradius 34.5406
lwrist -23.207
lhand 1.13381 -30.6704
lfingers 7.12502
lthumb 26.6759 -2.53024
rfemur -28.9387 5.30458 31.6206
rtibia 30.177
rfoot -15.4642 -23.9919
rtoes 18.9475
lfemur -2.05478 -3.48924 -21.4954
ltibia 48.2364
lfoot 18.5803 -18.0083
ltoes 14.38
